<svg width="25" height="24" viewBox="0 0 25 24" fill="none" xmlns="http://www.w3.org/2000/svg">
    <path fill-rule="evenodd" clip-rule="evenodd" d="M1.5 0.254578C0.947715 0.254578 0.5 0.702293 0.5 1.25458C0.5 1.80686 0.947715 2.25458 1.5 2.25458H4.68032L5.51195 6.40965C5.51638 6.43811 5.52201 6.46617 5.52879 6.49378L7.19916 14.8394C7.33647 15.5296 7.71225 16.1505 8.26048 16.5918C8.8062 17.0312 9.48837 17.2655 10.1886 17.2546H19.8914C20.5916 17.2655 21.2738 17.0312 21.8195 16.5918C22.368 16.1503 22.7437 15.53 22.8808 14.8394L22.8823 14.8319L24.4823 6.44191C24.5381 6.14916 24.4605 5.84676 24.2705 5.61713C24.0805 5.38751 23.798 5.25458 23.5 5.25458H7.32043L6.48055 1.05832C6.38701 0.590963 5.97663 0.254578 5.5 0.254578H1.5ZM7.72073 7.25458H22.2913L20.9185 14.453C20.8723 14.6819 20.7474 14.8874 20.5654 15.0339C20.3826 15.1811 20.1538 15.2593 19.9192 15.2548L19.9 15.2546H10.18L10.1608 15.2548C9.92619 15.2593 9.69743 15.1811 9.51461 15.0339C9.33179 14.8867 9.20656 14.68 9.16084 14.4498L7.72073 7.25458Z" fill="#AFB1B6"/>
    <path d="M7.5 21.2546C7.5 20.15 8.39543 19.2546 9.5 19.2546C10.6046 19.2546 11.5 20.15 11.5 21.2546C11.5 22.3591 10.6046 23.2546 9.5 23.2546C8.39543 23.2546 7.5 22.3591 7.5 21.2546Z" fill="#AFB1B6"/>
    <path d="M18.5 21.2546C18.5 20.15 19.3954 19.2546 20.5 19.2546C21.6046 19.2546 22.5 20.15 22.5 21.2546C22.5 22.3591 21.6046 23.2546 20.5 23.2546C19.3954 23.2546 18.5 22.3591 18.5 21.2546Z" fill="#AFB1B6"/>
</svg>
