<svg width="23" height="21" viewBox="0 0 23 21" fill="none" xmlns="http://www.w3.org/2000/svg">
    <path fill-rule="evenodd" clip-rule="evenodd" d="M10.0132 3.61719C8.19377 1.79777 5.24391 1.79777 3.4245 3.61719C1.60508 5.4366 1.60508 8.38646 3.4245 10.2059L4.2042 10.9856C4.21695 10.9983 4.22931 11.0114 4.24129 11.0247L11.5 18.2834L18.7584 11.025C18.7704 11.0116 18.7829 10.9985 18.7958 10.9856L19.5755 10.2059C21.3949 8.38646 21.3949 5.4366 19.5755 3.61719C17.7561 1.79777 14.8062 1.79777 12.9868 3.61719L12.2071 4.39689C11.8166 4.78742 11.1834 4.78742 10.7929 4.39689L10.0132 3.61719ZM20.2484 12.3614C20.2364 12.3748 20.2239 12.3879 20.211 12.4008L12.2081 20.4037C12.0205 20.5913 11.7661 20.6967 11.5008 20.6966C11.5005 20.6966 11.5011 20.6966 11.5008 20.6966C11.5005 20.6966 11.4995 20.6966 11.4992 20.6966C11.2339 20.6967 10.9795 20.5913 10.7919 20.4037L2.78896 12.4008C2.77607 12.3879 2.76359 12.3748 2.75155 12.3614L2.01029 11.6201C-0.590178 9.01963 -0.590181 4.80344 2.01028 2.20297C4.61075 -0.397492 8.82693 -0.397491 11.4274 2.20297L11.5 2.27557L11.5726 2.20297C14.1731 -0.397492 18.3892 -0.397491 20.9897 2.20297C23.5902 4.80344 23.5902 9.01963 20.9897 11.6201L20.2484 12.3614Z" fill="#AFB1B6"/>
</svg>
