<svg width="20" height="23" viewBox="0 0 20 23" fill="none" xmlns="http://www.w3.org/2000/svg">
    <path fill-rule="evenodd" clip-rule="evenodd" d="M10.6139 0.465241C10.2528 0.184377 9.74717 0.184377 9.38606 0.465241L0.386059 7.46524C0.142473 7.6547 0 7.946 0 8.25459V19.2546C0 20.0502 0.31607 20.8133 0.87868 21.3759C1.44129 21.9385 2.20435 22.2546 3 22.2546H17C17.7957 22.2546 18.5587 21.9385 19.1213 21.3759C19.6839 20.8133 20 20.0502 20 19.2546V8.25459C20 7.946 19.8575 7.6547 19.6139 7.46524L10.6139 0.465241ZM14 20.2546H17C17.2652 20.2546 17.5196 20.1492 17.7071 19.9617C17.8946 19.7742 18 19.5198 18 19.2546V8.74368L10 2.52145L2 8.74368V19.2546C2 19.5198 2.10536 19.7742 2.29289 19.9617C2.48043 20.1492 2.73478 20.2546 3 20.2546H6V11.2546C6 10.7023 6.44772 10.2546 7 10.2546H13C13.5523 10.2546 14 10.7023 14 11.2546V20.2546ZM8 20.2546V12.2546H12V20.2546H8Z" fill="#AFB1B6"/>
</svg>
