<svg width="18" height="21" viewBox="0 0 18 21" fill="none" xmlns="http://www.w3.org/2000/svg">
    <path fill-rule="evenodd" clip-rule="evenodd" d="M9 0.254578C6.23858 0.254578 4 2.49315 4 5.25458C4 8.016 6.23858 10.2546 9 10.2546C11.7614 10.2546 14 8.016 14 5.25458C14 2.49315 11.7614 0.254578 9 0.254578ZM6 5.25458C6 3.59772 7.34315 2.25458 9 2.25458C10.6569 2.25458 12 3.59772 12 5.25458C12 6.91143 10.6569 8.25458 9 8.25458C7.34315 8.25458 6 6.91143 6 5.25458Z" fill="#AFB1B6"/>
    <path d="M5 12.2546C3.67392 12.2546 2.40215 12.7814 1.46447 13.719C0.526784 14.6567 0 15.9285 0 17.2546V19.2546C0 19.8069 0.447715 20.2546 1 20.2546C1.55228 20.2546 2 19.8069 2 19.2546V17.2546C2 16.4589 2.31607 15.6959 2.87868 15.1333C3.44129 14.5706 4.20435 14.2546 5 14.2546H13C13.7956 14.2546 14.5587 14.5706 15.1213 15.1333C15.6839 15.6959 16 16.4589 16 17.2546V19.2546C16 19.8069 16.4477 20.2546 17 20.2546C17.5523 20.2546 18 19.8069 18 19.2546V17.2546C18 15.9285 17.4732 14.6567 16.5355 13.719C15.5979 12.7814 14.3261 12.2546 13 12.2546H5Z" fill="#AFB1B6"/>
</svg>
